PathFileType	4	(X/Y/Z)	C:/Users/opensim2020/Desktop/walking_exp_matlab/subject03_walking09_straight_04.trc	
DataRate	CameraRate	NumFrames	NumMarkers	Units	OrigDataRate	OrigDataStartFrame	OrigNumFrames	
100.00	100.00	9	47	mm	100.00	3921	353	
Frame#	Time	LFHD			RFHD			LBHD			RBHD			C7			T10			CLAV			STRN			RBAK			LSHO			LUPA			LELB			LFRM			LWRA			LWRB			LFIN			RSHO			RUPA			RELB			RFRM			RWRA			RWRB			RFIN			LASI			RASI			LPSI			RPSI			LTHI			LKNE			LTIB			LANK			LHEE			LTOE			RTHI			RKNE			RTIB			RANK			RHEE			RTOE			*39			*40			*41			*42			*43			*44			*45			*46			
		X1	Y1	Z1	X2	Y2	Z2	X3	Y3	Z3	X4	Y4	Z4	X5	Y5	Z5	X6	Y6	Z6	X7	Y7	Z7	X8	Y8	Z8	X9	Y9	Z9	X10	Y10	Z10	X11	Y11	Z11	X12	Y12	Z12	X13	Y13	Z13	X14	Y14	Z14	X15	Y15	Z15	X16	Y16	Z16	X17	Y17	Z17	X18	Y18	Z18	X19	Y19	Z19	X20	Y20	Z20	X21	Y21	Z21	X22	Y22	Z22	X23	Y23	Z23	X24	Y24	Z24	X25	Y25	Z25	X26	Y26	Z26	X27	Y27	Z27	X28	Y28	Z28	X29	Y29	Z29	X30	Y30	Z30	X31	Y31	Z31	X32	Y32	Z32	X33	Y33	Z33	X34	Y34	Z34	X35	Y35	Z35	X36	Y36	Z36	X37	Y37	Z37	X38	Y38	Z38	X39	Y39	Z39	X40	Y40	Z40	X41	Y41	Z41	X42	Y42	Z42	X43	Y43	Z43	X44	Y44	Z44	X45	Y45	Z45	X46	Y46	Z46	X47	Y47	Z47	

177	1.760	1524.81812	149.31590	1623.33130	1392.68762	162.78465	1630.74536	1531.11804	276.79587	1578.44653	1400.65613	285.01648	1585.50391	1472.48291	312.16708	1422.73547	1471.07239	352.83374	1110.67468	1462.46545	191.49135	1343.92932	1464.78223	153.36710	1177.82715	1377.52051	375.76324	1249.75378	1620.40442	224.87132	1380.40076	1696.38367	208.73647	1187.62610	1710.48071	181.67719	1068.15649	1707.32947	131.54411	947.97375	1675.13354	95.66273	835.00281	1728.94299	110.04307	838.10168	1719.77576	77.69366	760.94000	1306.12561	247.30556	1368.83691	1235.22620	250.66006	1145.62524	1223.84229	235.64902	1033.44043	1222.55457	218.30838	897.52032	1258.99316	188.72568	801.42157	1213.71802	218.88965	798.76733	1218.94263	199.08807	727.49835	1584.64465	186.20316	947.91138	1346.64563	194.25456	943.47961	1537.67737	349.87811	970.45660	1388.90674	353.01529	970.66998	1616.41370	242.54784	644.84229	1572.00049	239.49126	467.85022	1569.93140	296.41895	279.30005	1523.50623	321.77081	71.71381	1485.84937	362.33588	36.51154	1497.89929	168.91258	35.69953	1298.86646	185.35713	651.79175	1324.42139	117.82766	484.83984	1318.25061	213.54359	318.94263	1356.68030	316.84467	128.46074	1410.18030	369.37094	112.56948	1369.40808	205.57747	42.38865																								 
178	1.770	1524.53198	141.85423	1622.97778	1392.42407	155.67485	1630.16895	1531.26941	269.40195	1578.39526	1400.56177	278.03149	1585.17200	1472.72192	305.16223	1422.45435	1471.83325	346.20245	1110.49988	1462.70959	184.75990	1343.51819	1465.26001	146.74760	1177.36951	1378.29700	369.07431	1249.32739	1620.64697	217.64424	1380.29773	1697.18445	200.15419	1188.05713	1711.90979	171.46988	1069.15820	1708.28906	119.36176	949.75677	1675.79578	80.94465	837.85443	1729.47473	95.90080	840.26483	1720.11597	61.82834	763.90894	1306.42114	240.62552	1368.31543	1235.34387	244.67412	1145.16028	1223.85522	230.11267	1032.94897	1222.42432	213.38815	896.97375	1258.89685	184.43967	800.72400	1213.54797	214.38205	798.14648	1218.88513	194.93594	726.72345	1585.51563	179.91325	947.47205	1347.46375	187.40784	943.61505	1538.04102	343.53131	970.02130	1389.30200	346.34998	970.38605	1616.65161	237.47766	644.34644	1572.37158	236.10770	467.37296	1569.87854	294.28635	279.20459	1523.33533	321.51324	71.85086	1485.55078	362.07523	36.43815	1497.76855	168.64635	35.69498	1299.55713	176.50693	652.21082	1325.75305	107.04720	486.08890	1319.82910	197.07095	316.36786	1358.88452	292.16513	121.66672	1412.15869	344.17245	103.34296	1371.71143	176.38408	41.85455																								 
179	1.780	1524.19177	134.36972	1622.54651	1392.10583	148.55647	1629.51746	1531.47192	262.04391	1578.18994	1400.61365	270.91895	1584.60925	1473.06323	298.13846	1422.13464	1472.37146	339.53931	1110.21509	1462.95105	178.00955	1343.02441	1465.73584	140.06705	1176.83423	1379.12000	362.39438	1248.90295	1620.82813	210.41998	1380.10938	1697.98682	191.59015	1188.49500	1712.98865	161.62827	1070.01245	1709.13867	107.46919	951.48486	1676.27612	66.56213	840.67035	1729.81567	81.97977	842.34418	1720.14319	46.28392	766.82629	1306.69678	234.00601	1367.72363	1235.45764	238.76999	1144.58679	1223.82129	224.59891	1032.36829	1222.33228	208.21945	896.28729	1258.48425	179.28993	800.06653	1213.39355	209.80992	797.45380	1218.91931	190.39818	725.76538	1586.34326	174.63005	946.40436	1348.22021	180.52235	943.53912	1538.36926	337.11624	969.48450	1389.62622	339.63071	970.00232	1616.76123	232.44168	643.86273	1572.57947	232.62364	466.89105	1569.90466	292.53534	279.14581	1523.05176	321.05679	71.77911	1485.43689	362.07422	36.66308	1497.71985	168.54938	35.52396	1300.27966	167.90030	652.43317	1327.16553	97.06892	487.00021	1321.38257	180.84694	313.92462	1360.97974	267.43338	115.32353	1414.25781	318.39096	94.35080	1373.71509	147.44916	41.97101																								 
180	1.790	1523.82129	126.93349	1622.05640	1391.78186	141.35995	1628.78455	1531.22168	254.55588	1577.82874	1400.90210	263.84296	1584.25769	1473.44531	291.08722	1421.77612	1472.87061	332.85843	1109.83728	1463.07410	171.99341	1342.13904	1466.28491	133.26169	1176.29822	1379.92456	355.72925	1248.44873	1620.94446	203.13904	1379.88354	1698.73462	183.05327	1188.84973	1714.02271	151.88533	1070.74060	1709.92249	95.66122	953.26813	1676.66309	52.23231	843.60004	1730.01208	68.26557	844.43738	1720.03760	30.86734	769.77301	1306.96411	227.32135	1367.04382	1235.55469	232.83185	1143.99634	1223.87939	218.98277	1031.69556	1222.04883	203.40027	895.61816	1258.31763	174.63489	799.20428	1213.18542	204.97768	796.71948	1218.73792	186.02051	725.02502	1587.27612	167.45760	946.21442	1348.95288	173.55371	943.43805	1538.76257	330.57413	968.79437	1389.90515	332.91129	969.54803	1616.81885	227.53329	643.33929	1572.73584	229.18939	466.41388	1569.90674	290.45279	279.07117	1522.96399	320.91254	71.91729	1485.35120	362.31317	37.08309	1497.79370	168.72418	35.63560	1299.48425	157.04121	653.68146	1328.33984	87.37944	487.70398	1322.83911	164.87662	311.56973	1363.19421	242.29501	109.16924	1416.51563	292.54001	86.07005	1375.50720	118.95500	42.27710																								 
181	1.800	1523.45483	119.45551	1621.50256	1391.33911	134.21631	1627.97473	1531.45862	247.17131	1577.47852	1400.93835	256.67786	1583.60413	1473.72754	283.95517	1421.28430	1473.22876	326.22183	1109.43176	1463.21960	165.00447	1341.54395	1466.77356	126.50019	1175.63904	1380.65466	348.98734	1247.93652	1621.12036	195.71927	1379.58508	1699.38916	174.55208	1189.18347	1714.86780	142.14850	1071.40454	1710.44434	84.06576	954.93567	1676.79443	38.40168	846.38904	1730.02576	54.80491	846.44543	1719.69153	15.89680	772.63550	1307.20435	220.65004	1366.31299	1235.71509	226.89433	1143.34534	1223.91650	213.34885	1031.00952	1222.04822	198.08554	894.87390	1258.22559	170.06483	798.30328	1213.02258	200.03951	795.97394	1218.61816	181.37399	724.16016	1587.86133	161.00208	945.67517	1349.52026	166.73419	943.17340	1538.98303	324.10349	968.16846	1390.11963	326.14822	968.94379	1616.85107	222.68472	642.83350	1572.87207	225.80139	465.92871	1569.92419	288.56381	279.02386	1523.05518	321.19638	72.26169	1485.19556	362.27011	37.33060	1497.83240	168.50946	35.57843	1299.73621	148.90988	653.67932	1329.39478	78.05648	488.15616	1324.34351	149.08386	309.35434	1365.38416	217.20078	103.91252	1418.85034	266.12198	78.28162	1377.03894	90.91350	42.71749																								 
182	1.810	1522.96606	111.90657	1620.89063	1390.96216	127.04784	1627.16443	1531.45251	239.64555	1576.96313	1400.80908	249.83200	1582.97852	1473.98901	276.79132	1420.76379	1473.49463	319.51782	1108.95703	1463.41296	157.79404	1340.90955	1467.28491	119.60270	1174.91235	1381.36072	342.22433	1247.37964	1621.19043	188.34721	1379.21753	1699.96326	166.00798	1189.36597	1715.53723	132.52562	1071.94604	1710.79480	72.67385	956.48822	1676.67627	24.85140	849.09442	1729.83813	41.55267	848.43524	1719.11780	1.03505	775.51685	1307.37891	213.96666	1365.45496	1235.83496	220.99481	1142.53564	1223.97205	207.65392	1030.23706	1221.96472	192.75775	894.02618	1257.65649	163.71291	797.81500	1212.79309	195.02043	795.17242	1218.30957	176.69333	723.43365	1588.40942	154.56119	945.05170	1350.06799	159.76765	942.71320	1539.10278	317.45529	967.35791	1390.33936	319.41150	968.26202	1617.16528	218.13522	642.29205	1573.02612	222.33080	465.41846	1569.94507	286.84973	278.98578	1523.04944	320.84003	72.38395	1485.06042	362.27740	37.64881	1497.78857	168.53842	35.51789	1300.04468	141.00745	653.38757	1330.41431	68.89318	488.41748	1325.80212	133.44966	307.22223	1367.59387	192.02287	98.82976	1421.42139	239.21117	70.99962	1378.52942	63.17361	43.31677																								 
183	1.820	1522.52759	104.35735	1620.23535	1390.52429	119.81180	1626.25928	1531.10010	232.07080	1576.36450	1400.65430	242.80263	1582.19727	1474.22668	269.55478	1420.11084	1473.68140	312.75412	1108.39282	1463.53210	150.72072	1340.14673	1467.75916	112.81656	1174.10242	1382.00842	335.45377	1246.82556	1621.29114	180.86847	1378.82446	1700.41895	157.58823	1189.49255	1716.17615	123.01787	1072.45227	1711.04236	61.44787	958.00110	1676.42163	11.70525	851.73492	1729.49622	28.47622	850.29706	1718.32544	-13.41840	778.30701	1307.56763	207.20851	1364.63525	1235.98376	215.09451	1141.77478	1224.03748	201.91788	1029.41016	1221.89319	187.37375	893.19507	1257.75391	159.14934	796.65894	1212.66760	189.88315	794.32330	1218.20105	171.30580	722.45831	1588.78552	148.08917	944.33630	1350.43213	152.90753	942.05670	1539.21533	310.84235	966.57251	1390.47449	312.62109	967.45020	1616.68970	212.80313	641.76501	1573.10779	218.91978	464.94702	1569.85767	284.83936	278.88977	1522.61523	320.11096	72.27515	1484.94336	362.20712	37.95921	1497.82031	168.45105	35.38307	1300.16797	133.30446	652.97809	1331.33923	60.00965	488.42618	1327.25916	117.81038	305.07175	1369.69702	167.09935	94.24085	1423.41956	212.96317	65.13246	1380.03320	35.81870	43.95752																								 
184	1.830	1522.00989	96.82391	1619.52600	1390.00854	112.61574	1625.25378	1531.32483	224.59355	1575.82336	1400.54529	235.73352	1581.39160	1474.43713	262.29739	1419.43970	1473.99243	305.81497	1107.89209	1463.67004	143.50974	1339.36877	1468.17468	105.93428	1173.22131	1382.55933	328.56613	1246.21436	1621.32947	173.42267	1378.28796	1700.83167	149.21643	1189.48706	1716.66895	113.73440	1072.77185	1711.12305	50.48401	959.33710	1676.01086	-1.19033	854.13684	1728.98254	15.86321	852.10229	1717.46545	-27.58393	781.09497	1307.74622	200.32912	1363.65295	1236.14160	209.18036	1140.93433	1224.11719	196.09906	1028.54956	1221.83081	181.92444	892.30640	1257.51257	153.94604	795.62585	1212.55518	184.74467	793.44086	1217.80554	166.43204	721.57550	1589.21033	141.50592	943.64111	1350.79126	145.87727	941.29419	1539.33960	304.26837	965.91974	1390.53284	305.74707	966.51434	1616.62976	207.76982	641.24634	1573.15601	215.47374	464.41980	1569.99170	283.03287	278.89627	1522.46216	319.83789	72.44493	1484.80688	362.16922	38.35672	1497.83362	168.39992	35.35378	1300.29126	126.03044	652.25458	1332.35425	51.63137	488.18015	1328.53625	102.39376	303.04550	1371.85120	141.76796	90.17292	1426.17444	185.93930	58.88556	1381.66296	8.78769	44.89694																								 
185	1.840	1521.47778	89.20065	1618.79749	1389.49768	105.32772	1624.27942	1531.17419	216.99986	1575.17773	1400.44421	228.39671	1580.51672	1474.87585	255.16994	1419.09485	1474.08618	298.93765	1107.25745	1463.74463	136.26550	1338.52795	1468.48242	98.91477	1172.32532	1383.08716	321.65103	1245.59412	1621.33997	165.96609	1377.71558	1701.17261	140.84508	1189.36841	1717.04834	104.45547	1072.97388	1711.09644	39.65025	960.56177	1675.33667	-13.51614	856.46869	1728.35059	3.25393	853.81842	1716.40393	-41.43480	783.71210	1307.84338	193.25858	1362.96460	1236.28528	203.18916	1140.03174	1224.17480	190.24585	1027.63977	1221.80188	176.38739	891.30499	1257.29126	148.49998	794.53198	1212.43848	179.46710	792.53436	1217.56714	161.10674	720.77264	1589.54297	134.79646	942.88220	1351.03064	138.74001	940.38525	1539.37891	297.55737	965.13617	1390.56897	298.75620	965.48584	1616.60693	202.56767	640.71161	1573.27173	212.01239	463.99942	1569.88171	280.95578	278.83960	1522.47351	319.61581	72.79330	1484.68494	362.08942	38.76580	1497.81323	168.33272	35.21025	1300.44055	119.08780	651.27942	1333.00549	43.39043	487.82605	1329.51294	87.21478	301.03967	1373.62048	116.92985	86.66721	1428.40649	159.51518	54.28099	1383.49451	-18.03547	46.10680																								 
